<?xml version="1.0" encoding="UTF-8"?>
<svg id="Layer_1" xmlns="http://www.w3.org/2000/svg" version="1.1" viewBox="0 0 651.2 740.76">
  <!-- Generator: Adobe Illustrator 30.6.0, SVG Export Plug-In . SVG Version: 2.1.4 Build 109)  -->
  <defs>
    <style>
      .st0 {
        fill: #706862;
      }

      .st1 {
        fill: #8a9186;
      }

      .st2 {
        fill: #f7f7f7;
      }

      .st3 {
        fill: #00332e;
      }

      .st4 {
        fill: #dcd5d7;
      }

      .st5 {
        fill: #9790bd;
      }

      .st6 {
        fill: #f6dfa5;
      }

      .st7 {
        fill: #eacfcb;
      }

      .st8 {
        fill: #9790b7;
      }

      .st9 {
        fill: #9790ba;
      }
    </style>
  </defs>
  <path class="st7" d="M450.13,78.25"/>
  <path class="st7" d="M408.84,76.71c8.69-18.75,17.4-37.54,28.41-55.38,2.49-4.04,5.33-8.22,9.94-10.46,1.95-.95,4.42-1.48,6.37-.58,1.9.89,2.73,2.86,3.05,4.72.96,5.53-1.15,11.12-3.24,16.45-7.79,19.94-15.58,39.87-23.37,59.81"/>
  <path class="st7" d="M483.03,37.5"/>
  <path class="st7" d="M453.98,19.08c1.04-2.82,2.79-5.58,5.6-7.28,2.82-1.7,6.84-2.09,9.57-.37,2.85,1.8,3.55,5.23,3.36,8.31-.39,6.24-3.49,12.12-6.35,17.89-7.85,15.81-14.36,32.11-19.47,48.7-.08-.97-.16-1.94-.23-2.91"/>
  <path class="st7" d="M468.58,20.74c.94-1.74,1.9-3.5,3.35-4.96,1.45-1.46,3.47-2.6,5.68-2.69,3.94-.16,7.06,3.16,7.54,6.54.48,3.38-.97,6.74-2.4,9.95-8.5,19.08-16.99,38.16-25.49,57.24"/>
  <path class="st7" d="M480.35,29.25c1.38-2.94,3.47-6.36,7.11-6.62,3.05-.22,5.65,2.16,6.3,4.74.65,2.58-.18,5.27-1.09,7.81-5.72,16.02-14.91,31.24-17.98,47.76-.83,4.47-1.42,9.4-5.15,12.62-2.92,2.51-7.14,3.41-11.14,4.19-7.53,1.48-15.36,2.97-22.84,1.53-9.79-1.89-17.27-8.42-24.17-14.66-1.2-1.09-2.48-2.33-2.49-3.85,0-1.33.99-2.51,1.93-3.58,12.46-14.12,24.92-28.24,37.38-42.36"/>
  <path class="st7" d="M576.21,71.93c-.37-2.53-1.96-4.79-2.62-7.28-.65-2.48.08-5.66,2.83-6.64,1.68-.6,3.57-.18,5.26.34,2.6.81,5.09,1.86,7.43,3.12,2.02,1.1,4.01,2.46,4.84,4.41,1.17,2.76-.4,5.98-2.93,8.01-2.52,2.03-5.83,3.13-14.81-1.97Z"/>
  <path class="st7" d="M571.96,71.17c-3.43-2.22-3.5-6.97-1.08-10.11,2.41-3.14,6.6-4.9,10.76-5.98,2.05-.53,4.28-.93,6.29-.33,3.38,1.01,4.88,4.42,5.18,7.52.41,4.24-.72,8.67-3.61,12.17-2.88,3.5-7.59,5.94-12.51,6.05-2.26.05-5.03-.85-5.15-2.8-.08-1.29,1.08-2.39,2.27-3.19,2.35-1.59,5.16-2.66,8.09-3.08,0,.4-.02.81-10.23-.25Z"/>
  <path class="st9" d="M424.59,54.5l4.03-23.74c1.2-7.09,8.8-12.1,16.97-11.18l130.29,14.57c8.17.91,13.82,7.4,12.62,14.49l-4.03,23.74c-1.2,7.09-8.8,12.1-16.97,11.18l-130.29-14.57c-8.17-.91-13.82-7.4-12.62-14.49Z"/>
  <path class="st3" d="M431.05,20.44c9.35.67,18.7,1.33,28.06,2,6.27.45,12.94,1.02,17.81,4.41,2.78,1.93,4.76,4.71,5.51,7.74.92,3.69.06,7.55-.8,11.28-1.22,5.3-2.44,10.6-3.66,15.9-.48,2.07-.94,4.29-.02,6.23.41.86,1.1,1.74.82,2.66-.31,1-1.61,1.48-2.77,1.72-6.13,1.28-12.48-.1-18.61-1.22-10.29-1.87-20.78-2.96-31.32-3.27-4.29-.13-9.03-.27-12.09-2.84-2.4-2.02-3.17-5.08-3.51-7.98-.87-7.27.17-14.73,3.03-21.67,1.65-4,3.97-7.92,7.63-10.76,3.66-2.85,8.79-4.27,9.91-4.19Z"/>
  <ellipse class="st4" cx="478.5" cy="48.07" rx="26.54" ry="23.1" transform="translate(-2.03 28.93) rotate(-3.46)"/>
  <ellipse class="st1" cx="478.5" cy="49.38" rx="21.17" ry="20.09" transform="translate(-.78 8.3) rotate(-.99)"/>
  <path class="st2" d="M457.13,45.08c1.41-6.54,11.79-10.48,23.18-8.81,11.39,1.67,19.47,8.33,18.06,14.87-1.41,6.54-11.79,10.48-23.18,8.81-11.39-1.67-19.47-8.33-18.06-14.87Z"/>
  <path class="st3" d="M464.1,44.87c1.69-5.64,6.52-9.49,10.78-8.59,4.26.9,6.35,6.19,4.66,11.83-1.69,5.64-6.52,9.49-10.78,8.59-4.26-.9-6.35-6.19-4.66-11.83Z"/>
  <ellipse class="st4" cx="425.2" cy="44.05" rx="26.54" ry="23.1" transform="translate(-1.88 25.71) rotate(-3.46)"/>
  <ellipse class="st1" cx="425.2" cy="45.36" rx="21.17" ry="20.09" transform="translate(-.72 7.38) rotate(-.99)"/>
  <path class="st2" d="M403.83,41.06c1.41-6.54,11.79-10.48,23.18-8.81,11.39,1.67,19.47,8.33,18.06,14.87-1.41,6.54-11.79,10.48-23.18,8.81-11.39-1.67-19.47-8.33-18.06-14.87Z"/>
  <path class="st3" d="M410.8,40.85c1.69-5.64,6.52-9.49,10.78-8.59s6.35,6.19,4.66,11.83c-1.69,5.64-6.52,9.49-10.78,8.59-4.26-.9-6.35-6.19-4.66-11.83Z"/>
  <path class="st7" d="M612.91,80.63c1.27,2.26.48,5.1-1.26,7.15-1.75,2.06-4.3,3.48-6.84,4.76-9.56,4.83-19.92,8.45-30.64,10.7-6.83,1.44-14.35,2.25-20.52-.5-4.65-2.07-7.93-5.96-9.87-10.16-1.94-4.21-2.67-8.77-3.3-13.28-1.31-9.4-2.23-18.84-2.77-28.31-.28-4.84-.53-9.91-3.37-14.05-3.55-5.17-10.37-7.81-16.82-10.07-3.74-1.31-8.1-3.3-8.21-6.81-.08-2.73,2.78-5.06,5.86-5.71,3.08-.65,6.29,0,9.3.79,11.43,3,22.25,8.2,30.12,15.92,7.87,7.72,12.59,18.12,11.5,28.48"/>
  <path class="st7" d="M558.74,26.54c.37-1.75.88-3.52,1.98-5.02,1.1-1.51,2.9-2.74,4.94-2.91,2.23-.19,4.36.92,5.74,2.42,1.38,1.5,2.12,3.36,2.8,5.18,4.61,12.39,7.27,25.27,9.93,38.1.33,1.6.65,3.3-.02,4.83-1.05,2.38-4.21,3.6-7.13,3.72-6.72.27-12.6-3.94-16.15-8.83-3.55-4.89-5.44-10.56-8.58-15.65-1.72-2.78-3.82-5.4-5.15-8.35-1.33-2.94-1.81-6.37-.24-9.27,1.57-2.9,5.65-4.92,11.89-4.22Z"/>
  <path class="st7" d="M574.63,39.31c-2.02-9.02-4.03-18.05-6.05-27.07-.46-2.07-.92-4.17-.62-6.27.3-2.1,1.5-4.23,3.63-5.28,3.33-1.64,7.61-.11,10.21,2.25,3.68,3.34,5.22,8,6.63,12.47,6.88,21.66,13.76,43.32,20.64,64.98.26.81.51,1.63.51,2.47-.01,2.64-2.67,4.87-5.59,5.68-2.92.81-6.05.52-9.08.22"/>
  <path class="st7" d="M546.26,29.81c-1.34-2.34-.75-5.42,1.4-7.31,2.15-1.89,5.71-2.44,8.42-1.31,2.78,1.16,4.4,3.75,5.03,6.37.63,2.62.45,5.34.58,8.02.23,4.76,1.49,9.46,3.69,13.79"/>
  <path class="st7" d="M558.4,27.3c-1.34-2.34-.75-5.42,1.4-7.31,2.15-1.89,5.71-2.44,8.42-1.31,2.78,1.16,4.4,3.75,5.03,6.37.63,2.62.45,5.34.58,8.02.23,4.76,1.49,9.46,3.69,13.79"/>
  <path class="st7" d="M574.85,69.4c-2.26-1.76-3.43-4.59-2.71-7.18.72-2.59,3.44-4.77,6.5-4.95,3.01-.18,5.8,1.46,7.52,3.57,3.22,3.97,3.07,9.78-11.31,8.56Z"/>
  <path class="st0" d="M554.92,58.97c.77-7.71,1.53-15.49.48-23.12-.31-2.24-.81-4.55-2.27-6.35-2.52-3.12-7.32-4.1-10.11-7.03,2.35,1.13,4.61,2.41,6.77,3.82,1.95,1.27,3.87,2.72,4.91,4.69,1.02,1.93,1.1,4.17,1.16,6.34.19,7.1.37,14.24-.93,21.65Z"/>
  <path class="st0" d="M578.17,51.68c-7.07-9.06-13.52-18.46-19.3-28.16,6.47,9.46,12.94,18.91,19.3,28.16Z"/>
  <path class="st0" d="M587.62,49.19c-4.31-10.1-8.74-20.38-16.53-28.88,7.91,8.65,13.78,18.59,16.53,28.88Z"/>
  <path class="st0" d="M584.32,10.74c-1.49.84-3.17,1.42-4.91,1.68-1.07.16-2.28.18-3.12-.4-.68-.47-.99-1.23-1.23-1.96-.95-2.81-1.51-5.73-1.69-8.67-.39,2.9-.1,5.86.85,8.64.29.85.67,1.72,1.4,2.34,1.17.99,3.03,1.15,4.63.77,1.6-.39,2.99-1.23,4.07-2.41Z"/>
  <path class="st0" d="M528.3,16.94c-.72.98-1.53,2.04-2.79,2.42-.85.26-1.79.17-2.66,0-3.41-.63-6.41-2.26-9.34-3.87,2.15,1.5,4.56,2.74,7.13,3.65.9.32,1.82.6,2.79.69s1.99-.02,2.83-.45c1.06-.54,1.74-1.5,2.05-2.44Z"/>
  <path class="st0" d="M481.22,23.82c1.89-.59,3.17-1.63,3.67-2.7s.29-2.15-.21-3.15c.89.89,1.11,1.98.62,3.03-.49,1.05-1.69,2.04-4.09,2.83Z"/>
  <path class="st0" d="M468.67,22.16c1.4-.74,2.3-1.87,2.79-3.04.49-1.16.6-2.37.7-3.57.69,2.33-.46,4.95-2.94,6.71,0-.04,0-.08-.55-.11Z"/>
  <path class="st0" d="M463.6,28.71c-.35-.19-.69-.37-1.04-.56"/>
  <path class="st0" d="M455.82,19.97c.6-.66.87-1.64.91-2.6.04-.96-.14-1.92-.31-2.87.5,1.8.37,3.78-.6,5.47Z"/>
  <path class="st9" d="M545.72,109.96l-1.77-4.52c-2.08-5.31,1.23-11.15,7.41-13.04l53.23-16.36c6.17-1.9,12.86.87,14.94,6.18l1.77,4.52c2.08,5.31-1.23,11.15-7.41,13.04l-53.23,16.36c-6.17,1.9-12.86-.87-14.94-6.18Z"/>
  <path class="st5" d="M399.56,88.85l1.32-4.68c1.55-5.5,7.94-8.95,14.26-7.7l54.56,10.74c6.32,1.24,10.19,6.71,8.64,12.21l-1.32,4.68c-1.55,5.5-7.94,8.95-14.26,7.7l-54.56-10.74c-6.32-1.24-10.19-6.71-8.64-12.21Z"/>
  <path class="st9" d="M407.86,93.99c-2.4,20.42-4.8,40.84-7.2,61.26,6.82-4,15.45-3.01,23.43-2.62,9,.43,18.04-.08,26.92-1.53,6.51-1.06,13.35-2.61,19.56-.44-1.57-17.33-2.15-34.74-1.73-52.12"/>
  <path class="st9" d="M616.3,92.31c2.56,13.21,3.93,26.64,4.1,40.08-17.97,5.93-36.67,9.84-55.58,11.64-2.67.25-5.7.35-7.64-1.43-1.3-1.2-1.8-3.03-1.71-4.76s.67-3.39,1.26-5.03c2.81-7.86,5.94-16.17,12.72-21.34,3.38-2.58,7.46-4.19,10.9-6.7,2.76-2.01,5.07-4.56,7.93-6.44,2.86-1.88,6.58-3.04,9.8-1.81"/>
  <path class="st8" d="M271.16,114.6"/>
  <path class="st8" d="M89.16,114.6"/>
  <path class="st8" d="M453.16,352.6"/>
  <path class="st8" d="M269.16,352.6"/>
  <path class="st8" d="M87.16,352.6"/>
  <path class="st8" d="M457.16,590.6"/>
  <path class="st8" d="M273.16,590.6"/>
  <path class="st8" d="M91.16,590.6"/>
  <rect class="st6" x="0" y="96.09" width="651.2" height="644.67" rx="46.33" ry="46.33"/>
</svg>