<?xml version="1.0" encoding="UTF-8"?>
<svg id="Layer_1" xmlns="http://www.w3.org/2000/svg" version="1.1" viewBox="0 0 607.81 787.11">
  <!-- Generator: Adobe Illustrator 30.5.1, SVG Export Plug-In . SVG Version: 2.1.4 Build 3)  -->
  <defs>
    <style>
      .st0 {
        fill: #706862;
      }

      .st1 {
        fill: #fbe0a5;
      }

      .st2 {
        fill: #8a9186;
      }

      .st3 {
        fill: #f7f7f7;
      }

      .st4 {
        fill: #00332e;
      }

      .st5 {
        fill: #dcd5d7;
      }

      .st6 {
        fill: #9790bd;
      }

      .st7 {
        fill: #eacfcb;
      }

      .st8 {
        fill: #9790ba;
      }
    </style>
  </defs>
  <path class="st4" d="M286.15,80.15c.73,24.12,1.45,48.23,2.18,72.35.31,10.43.64,20.92,2.71,31.15s6.01,20.27,12.82,28.19c8.22,9.56,20.6,15.51,33.21,15.53s25.17-6.01,32.71-16.11c6.21-8.32,8.87-18.87,9.24-29.25.19-5.26.64-11.86,5.55-13.76,3.48-1.35,7.56.8,9.49,4s2.15,7.12,1.96,10.84c-.91,18.3-10.89,35.91-26.05,46.2s-35.15,13.07-52.58,7.42c-17.43-5.65-31.96-19.56-38.48-36.69-6.08-15.99-5.3-33.62-5.06-50.72.38-27.7-.87-55.42-3.76-82.97"/>
  <path class="st7" d="M218.33,113.55"/>
  <path class="st7" d="M159.26,105.31c14.89-29.95,29.82-59.97,47.94-88.08,4.1-6.36,8.71-12.93,15.62-16.02,2.93-1.31,6.54-1.85,9.22-.08,2.62,1.73,3.55,5.13,3.78,8.26.67,9.31-3.09,18.31-6.77,26.89-13.76,32.04-27.52,64.09-41.27,96.13"/>
  <path class="st7" d="M270.82,50.38"/>
  <path class="st7" d="M231.5,15.79c1.85-4.55,4.72-8.88,8.98-11.32s10.09-2.53,13.78.7c3.86,3.37,4.42,9.18,3.75,14.26-1.37,10.31-6.57,19.65-11.43,28.85-13.31,25.19-24.76,51.36-34.24,78.22.01-1.62.03-3.25.04-4.87"/>
  <path class="st7" d="M252.24,20.54c1.58-2.76,3.18-5.56,5.45-7.79s5.32-3.85,8.5-3.69c5.68.28,9.73,6.22,9.98,11.9s-2.26,11.07-4.72,16.19c-14.66,30.53-29.32,61.05-43.97,91.58"/>
  <path class="st7" d="M268.04,36.31c2.36-4.7,5.8-10.09,11.06-10.02,4.41.06,7.84,4.36,8.43,8.73s-.94,8.73-2.57,12.83c-10.27,25.82-25.43,49.85-31.97,76.86-1.77,7.32-3.25,15.42-9.03,20.25-4.51,3.77-10.7,4.68-16.53,5.44-11,1.43-22.44,2.82-32.99-.6-13.81-4.48-23.7-16.35-32.8-27.67-1.59-1.97-3.27-4.22-3.07-6.74.17-2.21,1.74-4.03,3.23-5.68,19.71-21.74,39.42-43.49,59.14-65.23"/>
  <path class="st7" d="M400.14,120.38c-.2-4.26-2.2-8.23-2.82-12.45s.84-9.39,4.92-10.64c2.49-.76,5.16.19,7.51,1.29,3.63,1.7,7.07,3.78,10.26,6.21,2.76,2.1,5.44,4.65,6.37,7.98,1.33,4.74-1.35,9.88-5.23,12.9s-8.77,4.4-21.01-5.31Z"/>
  <path class="st7" d="M394.15,118.52c-4.64-4.15-4.12-12.07-.25-16.94s10.11-7.24,16.22-8.45c3.02-.6,6.27-.95,9.07.31,4.72,2.14,6.44,8.02,6.47,13.2.04,7.1-2.16,14.31-6.75,19.72s-11.67,8.83-18.75,8.34c-3.26-.23-7.12-2.1-7.03-5.36.05-2.15,1.86-3.82,3.67-4.99,3.58-2.31,7.76-3.71,12.01-4.01-.07.67-.13,1.34-14.65-1.81Z"/>
  <rect class="st8" x="186.26" y="35.48" width="233" height="83" rx="21.56" ry="21.56" transform="translate(24.61 -65.23) rotate(12.81)"/>
  <path class="st4" d="M198.41,14.89l40.02,7.17c8.94,1.6,18.44,3.48,24.99,9.77,3.74,3.59,6.22,8.48,6.91,13.62.84,6.26-.89,12.55-2.6,18.62-2.43,8.64-4.87,17.27-7.3,25.91-.95,3.38-1.9,7-.83,10.34.48,1.49,1.36,3.05.84,4.53-.57,1.62-2.5,2.24-4.2,2.48-8.97,1.28-17.9-1.89-26.55-4.58-14.53-4.51-29.45-7.78-44.55-9.74-6.14-.8-12.93-1.69-16.98-6.37-3.19-3.68-3.89-8.87-4.02-13.74-.31-12.19,2.15-24.45,7.15-35.58,2.88-6.42,6.73-12.6,12.35-16.83s13.17-5.89,14.77-5.6Z"/>
  <ellipse class="st5" cx="262.96" cy="67.31" rx="38.25" ry="38.5"/>
  <ellipse class="st2" cx="262.78" cy="69.49" rx="30.5" ry="33.5"/>
  <ellipse class="st3" cx="261.87" cy="67.27" rx="20" ry="30.25" transform="translate(128.82 302.65) rotate(-74.93)"/>
  <ellipse class="st4" cx="253.57" cy="63.76" rx="17.5" ry="11.5" transform="translate(110.55 282.64) rotate(-70.95)"/>
  <ellipse class="st5" cx="186.96" cy="53.31" rx="38.25" ry="38.5"/>
  <ellipse class="st2" cx="186.78" cy="55.49" rx="30.5" ry="33.5"/>
  <ellipse class="st3" cx="185.87" cy="53.27" rx="20" ry="30.25" transform="translate(86.1 218.9) rotate(-74.93)"/>
  <ellipse class="st4" cx="177.57" cy="49.76" rx="17.5" ry="11.5" transform="translate(72.58 201.37) rotate(-70.95)"/>
  <path class="st7" d="M451.71,139.87c1.54,3.92.03,8.53-2.74,11.71s-6.62,5.19-10.44,6.97c-14.35,6.71-29.69,11.3-45.36,13.57-9.99,1.45-20.88,1.77-29.4-3.65-6.41-4.08-10.62-10.98-12.85-18.24-2.24-7.26-2.7-14.93-3.02-22.52-.66-15.79-.77-31.6-.33-47.4.23-8.08.52-16.54-3.03-23.81-4.43-9.07-13.88-14.4-22.85-19.03-5.2-2.68-11.2-6.59-10.91-12.43.23-4.55,4.64-8.03,9.15-8.68s9.04.87,13.26,2.59c16.03,6.55,30.88,16.67,41.19,30.59,10.31,13.91,15.73,31.82,12.83,48.89"/>
  <path class="st7" d="M380.92,42.57c.76-2.85,1.71-5.72,3.49-8.07s4.51-4.15,7.46-4.16c3.22,0,6.14,2.12,7.92,4.8s2.61,5.87,3.35,9c5.01,21.21,7.18,42.97,9.34,64.65.27,2.71.51,5.57-.66,8.02-1.81,3.8-6.51,5.41-10.71,5.2-9.69-.47-17.58-8.28-22.04-16.89s-6.44-18.28-10.3-27.18c-2.11-4.86-4.79-9.5-6.31-14.57s-1.78-10.83.84-15.43,8.74-7.4,17.62-5.38Z"/>
  <path class="st7" d="M402.08,65.97c-1.73-15.27-3.46-30.53-5.19-45.8-.4-3.49-.79-7.06-.09-10.5s2.7-6.82,5.9-8.27c4.99-2.27,10.94.86,14.37,5.14,4.85,6.06,6.45,14.01,7.91,21.62,7.08,36.93,14.16,73.85,21.24,110.78.26,1.38.53,2.77.42,4.17-.36,4.38-4.46,7.72-8.75,8.66s-8.76.03-13.06-.88"/>
  <path class="st7" d="M362.59,46.28c-1.63-4.07-.38-9.1,2.95-11.94s8.51-3.27,12.26-1.02c3.83,2.3,5.83,6.83,6.4,11.27s-.05,8.93-.21,13.4c-.28,7.93.92,15.92,3.51,23.42"/>
  <path class="st7" d="M380.34,43.78c-1.63-4.07-.38-9.1,2.95-11.94s8.51-3.27,12.26-1.02c3.83,2.3,5.83,6.83,6.4,11.27s-.05,8.93-.21,13.4c-.28,7.93.92,15.92,3.51,23.42"/>
  <path class="st7" d="M398.52,115.99c-3.02-3.23-4.33-8.09-2.96-12.3s5.55-7.44,9.98-7.33c4.34.11,8.14,3.22,10.33,6.97,4.11,7.04,3.15,16.66-17.34,12.66Z"/>
  <path class="st0" d="M371.26,95.92c2.09-12.7,4.2-25.51,3.67-38.33-.15-3.77-.58-7.67-2.45-10.87-3.22-5.53-9.99-7.81-13.61-13.06,3.23,2.21,6.31,4.64,9.23,7.27,2.64,2.38,5.21,5.05,6.45,8.46,1.22,3.35,1.04,7.08.84,10.69-.65,11.82-1.3,23.71-4.13,35.84Z"/>
  <path class="st0" d="M405.57,87c-8.98-16.01-17.02-32.53-24.07-49.43,8.07,16.6,16.14,33.19,24.07,49.43Z"/>
  <path class="st0" d="M419.46,84.16c-4.89-17.37-9.92-35.05-20-50.25,10.23,15.46,17.38,32.77,20,50.25Z"/>
  <path class="st0" d="M419.69,19.84c-2.24,1.19-4.73,1.92-7.26,2.12-1.56.12-3.29-.02-4.43-1.1-.92-.87-1.26-2.18-1.52-3.42-1-4.8-1.43-9.72-1.31-14.63-.94,4.76-.9,9.72.11,14.47.31,1.46.74,2.95,1.7,4.08,1.54,1.81,4.2,2.33,6.54,1.91s4.45-1.63,6.16-3.44Z"/>
  <path class="st0" d="M338.47,22.45c-1.16,1.54-2.46,3.17-4.32,3.64-1.26.32-2.59.04-3.83-.35-4.81-1.51-8.91-4.64-12.91-7.72,2.9,2.79,6.19,5.17,9.76,7.04,1.24.65,2.54,1.24,3.91,1.53s2.85.23,4.13-.36c1.6-.75,2.7-2.25,3.25-3.77Z"/>
  <path class="st0" d="M269.99,27.41c2.79-.71,4.76-2.28,5.62-3.98s.7-3.53.11-5.27c1.16,1.6,1.34,3.44.51,5.11s-2.69,3.16-6.23,4.14Z"/>
  <path class="st0" d="M252.19,22.91c2.11-1.04,3.55-2.79,4.4-4.66s1.17-3.86,1.47-5.83c.69,3.96-1.3,8.16-5.09,10.75.01-.07.02-.14-.78-.26Z"/>
  <path class="st0" d="M244.07,33.1l-1.42-1.07"/>
  <path class="st0" d="M234.03,17.52c.95-1.01,1.47-2.6,1.64-4.19s.05-3.21-.08-4.81c.48,3.05.05,6.34-1.56,9Z"/>
  <rect class="st8" x="348.73" y="140.38" width="115" height="42" rx="17" ry="17" transform="translate(-27.17 104.51) rotate(-14.19)"/>
  <rect class="st6" x="142.73" y="117.38" width="115" height="42" rx="17" ry="17" transform="translate(53.33 -55.68) rotate(18.23)"/>
  <path class="st8" d="M157.09,134.67C94.4,209.58,51.36,299.95,26.85,394.51S-3.98,587.81,2.22,685.3c.68,10.74,1.92,22.41,9.41,30.13,9.02,9.3,23.64,9.5,36.59,9.06,25.4-.86,50.81-1.72,76.21-2.58,8.22-.28,17.04-.77,23.52-5.83,6.69-5.23,9.23-14.05,11.34-22.28,45.4-177.12,68.68-359.9,69.12-542.75l14.1-3.99"/>
  <path class="st8" d="M236.84,149.01c-3.64,56.48,6.25,112.92,7.76,169.5,3.73,139.9-43.66,275.83-96.44,405.45-4.22,10.36-8.77,21.11-17.28,28.37s-22.25,9.69-30.7,2.35c-7.85-6.82-8.48-19.14-15.57-26.74-7.95-8.53-22.38-9.39-28.86-19.09-5.96-8.92-2.37-20.82,1.27-30.91,54.08-149.78,81.81-307.56,109.31-464.41"/>
  <path class="st6" d="M450.72,162.67c62.69,74.92,105.74,165.29,130.24,259.85s30.83,193.3,24.63,290.79c-.68,10.74-1.92,22.41-9.41,30.13-9.02,9.3-23.64,9.5-36.59,9.06-25.4-.86-50.81-1.72-76.21-2.58-8.22-.28-17.04-.77-23.52-5.83-6.69-5.23-9.23-14.05-11.34-22.28-45.4-177.12-68.68-359.9-69.12-542.75l-14.1-3.99"/>
  <path class="st6" d="M370.97,177.01c3.64,56.48-6.25,112.92-7.76,169.5-3.73,139.9,43.66,275.83,96.44,405.45,4.22,10.36,8.77,21.11,17.28,28.37s22.25,9.69,30.7,2.35c7.85-6.82,8.48-19.14,15.57-26.74,7.95-8.53,22.38-9.39,28.86-19.09,5.96-8.92,2.37-20.82-1.27-30.91-54.08-149.78-81.81-307.56-109.31-464.41"/>
  <path class="st1" d="M160.83,152.9c-53.07,78.6-88.46,168.42-108.89,261.03-20.43,92.61-26.17,188.06-22.77,282.84-42.51-188.97,5.05-396.17,131.66-543.87Z"/>
  <path class="st1" d="M456.56,186.67c40.36,69.97,77,142.53,101.93,219.37,24.93,76.84,37.95,158.31,30.42,238.73,14.68-81.95,10.31-167.24-12.67-247.26s-64.52-154.64-119.68-210.84Z"/>
</svg>