<?xml version="1.0" encoding="UTF-8"?>
<svg id="Layer_1" xmlns="http://www.w3.org/2000/svg" version="1.1" viewBox="0 0 501.61 831.82">
  <!-- Generator: Adobe Illustrator 30.6.0, SVG Export Plug-In . SVG Version: 2.1.4 Build 109)  -->
  <defs>
    <style>
      .st0 {
        fill: #706862;
      }

      .st1 {
        fill: #8a9186;
      }

      .st2 {
        fill: #f7f7f7;
      }

      .st3 {
        fill: #00332e;
      }

      .st4 {
        fill: #dcd5d7;
      }

      .st5 {
        fill: #9790bd;
      }

      .st6 {
        fill: #eacfcb;
      }

      .st7 {
        fill: #9790ba;
      }
    </style>
  </defs>
  <path class="st6" d="M353.15,67.12"/>
  <path class="st6" d="M320.22,65.8c6.93-16.08,13.88-32.2,22.67-47.5,1.99-3.46,4.25-7.05,7.93-8.98,1.56-.81,3.53-1.27,5.08-.49,1.52.76,2.18,2.46,2.44,4.05.77,4.74-.92,9.54-2.58,14.11-6.22,17.1-12.43,34.2-18.65,51.3"/>
  <path class="st6" d="M379.4,32.17"/>
  <path class="st6" d="M356.23,16.37c.83-2.42,2.22-4.79,4.47-6.24,2.25-1.46,5.46-1.79,7.63-.32,2.27,1.54,2.83,4.49,2.68,7.13-.31,5.35-2.78,10.39-5.07,15.35-6.26,13.56-11.46,27.54-15.53,41.77-.06-.83-.12-1.66-.19-2.5"/>
  <path class="st6" d="M367.88,17.79c.75-1.49,1.52-3.01,2.67-4.26,1.16-1.25,2.77-2.23,4.53-2.31,3.14-.13,5.63,2.71,6.02,5.61s-.77,5.78-1.91,8.53c-6.78,16.37-13.55,32.73-20.33,49.1"/>
  <path class="st6" d="M377.26,25.09c1.1-2.53,2.77-5.46,5.67-5.68,2.44-.19,4.51,1.85,5.02,4.06.52,2.21-.14,4.52-.87,6.7-4.56,13.74-11.89,26.8-14.34,40.97-.66,3.84-1.13,8.06-4.11,10.82-2.33,2.16-5.7,2.92-8.89,3.6-6.01,1.27-12.25,2.55-18.22,1.31-7.81-1.62-13.77-7.22-19.28-12.57-.96-.93-1.98-2-1.98-3.31,0-1.14.79-2.15,1.54-3.07,9.94-12.11,19.88-24.23,29.82-36.34"/>
  <path class="st6" d="M453.74,61.7c-.29-2.17-1.57-4.11-2.09-6.24-.52-2.13.06-4.86,2.26-5.7,1.34-.51,2.85-.15,4.2.3,2.07.69,4.06,1.59,5.92,2.68,1.61.94,3.2,2.11,3.86,3.78.93,2.37-.32,5.13-2.33,6.87-2.01,1.74-4.65,2.69-11.82-1.69Z"/>
  <path class="st6" d="M450.35,61.04c-2.74-1.9-2.79-5.98-.86-8.67,1.93-2.69,5.27-4.21,8.58-5.13,1.64-.46,3.42-.8,5.02-.28,2.7.86,3.9,3.8,4.13,6.45.33,3.64-.58,7.44-2.88,10.44-2.3,3-6.06,5.1-9.98,5.19-1.81.04-4.02-.73-4.11-2.4-.06-1.1.86-2.05,1.81-2.74,1.88-1.36,4.12-2.28,6.45-2.65,0,.35-.01.69-8.16-.21Z"/>
  <path class="st7" d="M332.78,46.75l3.21-20.37c.96-6.08,7.02-10.37,13.54-9.59l103.94,12.5c6.52.78,11.02,6.35,10.06,12.43l-3.21,20.37c-.96,6.08-7.02,10.37-13.54,9.59l-103.94-12.5c-6.52-.78-11.02-6.35-10.06-12.43Z"/>
  <path class="st3" d="M337.94,17.53c7.46.57,14.92,1.14,22.38,1.71,5,.38,10.32.88,14.21,3.78,2.22,1.66,3.79,4.04,4.4,6.64.73,3.17.05,6.47-.64,9.67-.97,4.55-1.95,9.09-2.92,13.64-.38,1.78-.75,3.68-.01,5.34.33.74.88,1.5.66,2.28-.24.86-1.29,1.27-2.21,1.48-4.89,1.1-9.95-.09-14.84-1.04-8.21-1.6-16.58-2.54-24.99-2.81-3.42-.11-7.2-.23-9.64-2.43-1.92-1.73-2.53-4.36-2.8-6.84-.7-6.23.14-12.64,2.42-18.59,1.31-3.43,3.17-6.79,6.09-9.23,2.92-2.44,7.01-3.66,7.91-3.6Z"/>
  <ellipse class="st4" cx="375.79" cy="41.23" rx="21.18" ry="19.8" transform="translate(-2.21 47.33) rotate(-7.19)"/>
  <ellipse class="st1" cx="375.79" cy="42.36" rx="17.24" ry="16.88" transform="translate(317.06 415.94) rotate(-87.5)"/>
  <path class="st2" d="M358.74,38.67c1.13-5.61,9.41-8.99,18.49-7.56s15.54,7.14,14.41,12.75c-1.13,5.61-9.41,8.99-18.49,7.56-9.08-1.43-15.54-7.14-14.41-12.75Z"/>
  <path class="st3" d="M364.3,38.48c1.35-4.84,5.2-8.14,8.6-7.37,3.4.77,5.06,5.31,3.72,10.15-1.35,4.84-5.2,8.14-8.6,7.37-3.4-.77-5.06-5.31-3.72-10.15Z"/>
  <ellipse class="st4" cx="333.27" cy="37.79" rx="21.18" ry="19.8" transform="translate(-2.11 41.98) rotate(-7.19)"/>
  <ellipse class="st1" cx="333.27" cy="38.91" rx="17.24" ry="16.88" transform="translate(279.84 370.16) rotate(-87.5)"/>
  <path class="st2" d="M316.22,35.22c1.13-5.61,9.41-8.99,18.49-7.56,9.08,1.43,15.54,7.14,14.41,12.75-1.13,5.61-9.41,8.99-18.49,7.56-9.08-1.43-15.54-7.14-14.41-12.75Z"/>
  <path class="st3" d="M321.78,35.04c1.35-4.84,5.2-8.14,8.6-7.37,3.4.77,5.06,5.31,3.72,10.15-1.35,4.84-5.2,8.14-8.6,7.37-3.4-.77-5.06-5.31-3.72-10.15Z"/>
  <path class="st6" d="M483.02,69.16c1.02,1.94.38,4.37-1.01,6.14-1.39,1.76-3.43,2.98-5.46,4.09-7.63,4.14-15.89,7.25-24.44,9.18-5.45,1.23-11.44,1.93-16.37-.43-3.71-1.78-6.33-5.11-7.87-8.72-1.55-3.61-2.13-7.52-2.63-11.39-1.04-8.06-1.78-16.16-2.21-24.28-.22-4.15-.42-8.5-2.69-12.05-2.83-4.43-8.27-6.7-13.42-8.63-2.98-1.12-6.46-2.83-6.55-5.84-.07-2.34,2.22-4.34,4.68-4.9s5.02,0,7.42.68c9.12,2.57,17.75,7.03,24.03,13.66,6.28,6.63,10.04,15.54,9.17,24.43"/>
  <path class="st6" d="M439.8,22.77c.3-1.5.7-3.02,1.58-4.31s2.31-2.35,3.94-2.5c1.78-.16,3.48.79,4.58,2.07,1.1,1.29,1.69,2.88,2.24,4.45,3.68,10.62,5.8,21.67,7.92,32.68.26,1.37.52,2.83-.02,4.14-.84,2.04-3.36,3.09-5.69,3.19-5.36.23-10.05-3.38-12.88-7.57-2.83-4.19-4.34-9.06-6.85-13.43-1.37-2.39-3.05-4.63-4.11-7.16-1.06-2.53-1.45-5.47-.2-7.95,1.25-2.49,4.5-4.22,9.49-3.62Z"/>
  <path class="st6" d="M452.48,33.72c-1.61-7.74-3.22-15.48-4.82-23.22-.37-1.77-.74-3.58-.5-5.38s1.2-3.63,2.9-4.53c2.66-1.41,6.07-.09,8.14,1.93,2.93,2.87,4.16,6.86,5.29,10.69,5.49,18.58,10.97,37.16,16.46,55.74.2.69.41,1.4.41,2.12,0,2.26-2.13,4.18-4.46,4.87-2.33.69-4.83.45-7.24.19"/>
  <path class="st6" d="M429.85,25.57c-1.07-2-.6-4.65,1.12-6.27s4.55-2.09,6.72-1.12c2.21.99,3.51,3.22,4.01,5.46.5,2.25.36,4.58.46,6.88.19,4.08,1.19,8.11,2.94,11.83"/>
  <path class="st6" d="M439.53,23.42c-1.07-2-.6-4.65,1.12-6.27,1.72-1.62,4.55-2.09,6.72-1.12,2.21.99,3.51,3.22,4.01,5.46.5,2.25.36,4.58.46,6.88.19,4.08,1.19,8.11,2.94,11.83"/>
  <path class="st6" d="M452.66,59.53c-1.8-1.51-2.74-3.94-2.16-6.16.57-2.22,2.74-4.09,5.19-4.25,2.4-.15,4.63,1.25,6,3.07,2.57,3.41,2.45,8.39-9.02,7.34Z"/>
  <path class="st0" d="M436.76,50.58c.61-6.61,1.22-13.28.38-19.83-.25-1.92-.65-3.9-1.81-5.45-2.01-2.68-5.84-3.51-8.07-6.03,1.88.97,3.68,2.07,5.4,3.27,1.56,1.09,3.09,2.33,3.92,4.02.82,1.66.88,3.58.92,5.44.15,6.09.3,12.21-.74,18.57Z"/>
  <path class="st0" d="M455.3,44.33c-5.64-7.77-10.78-15.84-15.4-24.16,5.16,8.11,10.32,16.22,15.4,24.16Z"/>
  <path class="st0" d="M462.84,42.19c-3.44-8.67-6.97-17.48-13.19-24.78,6.31,7.42,10.99,15.94,13.19,24.78Z"/>
  <path class="st0" d="M460.21,9.21c-1.19.72-2.53,1.22-3.92,1.44-.86.14-1.82.15-2.49-.34-.54-.4-.79-1.06-.98-1.68-.76-2.41-1.21-4.91-1.35-7.43-.31,2.49-.08,5.03.68,7.41.23.73.53,1.48,1.11,2.01.93.85,2.42.99,3.69.66,1.27-.33,2.39-1.06,3.25-2.06Z"/>
  <path class="st0" d="M415.52,14.53c-.57.84-1.22,1.75-2.23,2.08-.68.22-1.43.15-2.13,0-2.72-.54-5.11-1.94-7.45-3.32,1.72,1.29,3.64,2.35,5.69,3.13.71.27,1.45.51,2.22.59s1.58-.02,2.26-.39c.85-.46,1.39-1.29,1.63-2.09Z"/>
  <path class="st0" d="M377.96,20.43c1.51-.5,2.53-1.4,2.93-2.32.4-.91.23-1.84-.17-2.71.71.76.89,1.7.5,2.6-.39.9-1.35,1.75-3.26,2.43Z"/>
  <path class="st0" d="M367.95,19c1.12-.63,1.84-1.61,2.23-2.6.39-1,.48-2.03.56-3.06.55,2-.37,4.25-2.35,5.76,0-.04,0-.07-.44-.1Z"/>
  <path class="st0" d="M363.9,24.63l-.83-.48"/>
  <path class="st0" d="M357.7,17.13c.48-.57.7-1.4.73-2.23s-.11-1.65-.25-2.46c.4,1.54.3,3.25-.48,4.69Z"/>
  <path class="st7" d="M429.42,94.32l-1.41-3.88c-1.66-4.55.99-9.56,5.91-11.19l42.46-14.03c4.92-1.63,10.26.75,11.92,5.3l1.41,3.88c1.66,4.55-.99,9.56-5.91,11.19l-42.46,14.03c-4.92,1.63-10.26-.75-11.92-5.3Z"/>
  <path class="st5" d="M312.81,76.21l1.05-4.02c1.24-4.72,6.33-7.67,11.38-6.61l43.52,9.21c5.05,1.07,8.13,5.76,6.89,10.47l-1.05,4.02c-1.24,4.72-6.33,7.67-11.38,6.61l-43.52-9.21c-5.05-1.07-8.13-5.76-6.89-10.47Z"/>
  <rect class="st7" y="93.96" width="501.61" height="737.86"/>
  <path class="st7" d="M319.43,80.62c-1.91,17.52-3.83,35.03-5.74,52.55,5.44-3.43,12.32-2.58,18.69-2.25,7.18.37,14.39-.07,21.48-1.32,5.19-.91,10.65-2.24,15.6-.38-1.25-14.86-1.71-29.79-1.38-44.71"/>
  <path class="st7" d="M485.72,79.18c2.04,11.33,3.14,22.85,3.27,34.38-14.34,5.08-29.25,8.44-44.34,9.98-2.13.22-4.55.3-6.1-1.23-1.04-1.03-1.43-2.6-1.37-4.08s.54-2.91,1-4.31c2.24-6.74,4.74-13.87,10.15-18.3,2.7-2.21,5.95-3.6,8.7-5.74,2.2-1.72,4.04-3.91,6.32-5.52s5.25-2.6,7.82-1.55"/>
</svg>