<?xml version="1.0" encoding="UTF-8"?>
<svg id="Layer_1" xmlns="http://www.w3.org/2000/svg" version="1.1" viewBox="0 0 450.69 779.36">
  <!-- Generator: Adobe Illustrator 30.5.1, SVG Export Plug-In . SVG Version: 2.1.4 Build 3)  -->
  <defs>
    <style>
      .st0 {
        fill: #706862;
      }

      .st1 {
        fill: #fbe0a5;
      }

      .st2 {
        fill: #8a9186;
      }

      .st3 {
        fill: #f7f7f7;
      }

      .st4 {
        fill: #00332e;
      }

      .st5 {
        fill: #dcd5d7;
      }

      .st6 {
        fill: #9790bd;
      }

      .st7 {
        fill: #eacfcb;
      }

      .st8 {
        fill: #9790ba;
      }
    </style>
  </defs>
  <path class="st8" d="M0,746.43l5.09-369.38c.2-14.77,11.93-26.56,26.19-26.35l393.95,5.82c14.26.21,25.66,12.35,25.46,27.12l-5.09,369.38c-.2,14.77-11.93,26.56-26.19,26.35l-393.95-5.82c-14.26-.21-25.66-12.35-25.46-27.12Z"/>
  <path class="st4" d="M217.79,46.85c.46,14.1.91,28.19,1.37,42.29.2,6.1.4,12.23,1.7,18.21,1.3,5.98,3.77,11.85,8.03,16.48,5.15,5.59,12.91,9.06,20.81,9.08,7.9.02,15.78-3.51,20.5-9.42,3.89-4.86,5.56-11.03,5.79-17.1.12-3.07.4-6.93,3.48-8.04,2.18-.79,4.74.47,5.95,2.34,1.21,1.87,1.35,4.16,1.23,6.34-.57,10.7-6.83,20.99-16.33,27.01s-22.03,7.64-32.96,4.34c-10.93-3.3-20.03-11.43-24.12-21.45-3.81-9.34-3.32-19.65-3.17-29.65.24-16.19-.55-32.4-2.36-48.5"/>
  <path class="st7" d="M175.28,66.37"/>
  <path class="st7" d="M138.26,61.56c9.33-17.51,18.69-35.06,30.05-51.49,2.57-3.72,5.46-7.56,9.79-9.36,1.84-.77,4.1-1.08,5.78-.05,1.64,1.01,2.23,3,2.37,4.83.42,5.44-1.94,10.7-4.25,15.72-8.62,18.73-17.25,37.46-25.87,56.19"/>
  <path class="st7" d="M208.18,29.45"/>
  <path class="st7" d="M183.54,9.23c1.16-2.66,2.96-5.19,5.63-6.62s6.32-1.48,8.64.41c2.42,1.97,2.77,5.37,2.35,8.34-.86,6.03-4.12,11.49-7.16,16.86-8.34,14.72-15.52,30.02-21.46,45.73,0-.95.02-1.9.02-2.85"/>
  <path class="st7" d="M196.54,12.01c.99-1.61,1.99-3.25,3.42-4.55,1.42-1.3,3.34-2.25,5.33-2.16,3.56.16,6.1,3.64,6.26,6.96.16,3.32-1.42,6.47-2.96,9.46-9.19,17.84-18.38,35.69-27.56,53.53"/>
  <path class="st7" d="M206.44,21.22c1.48-2.75,3.63-5.9,6.93-5.86,2.76.04,4.91,2.55,5.28,5.11.37,2.55-.59,5.1-1.61,7.5-6.44,15.1-15.94,29.14-20.04,44.93-1.11,4.28-2.04,9.01-5.66,11.84-2.83,2.21-6.7,2.73-10.36,3.18-6.9.84-14.06,1.65-20.68-.35-8.66-2.62-14.86-9.56-20.56-16.17-1-1.15-2.05-2.47-1.93-3.94.11-1.29,1.09-2.36,2.02-3.32,12.36-12.71,24.71-25.42,37.07-38.13"/>
  <path class="st7" d="M289.24,70.37c-.12-2.49-1.38-4.81-1.77-7.28-.39-2.47.53-5.49,3.08-6.22,1.56-.44,3.23.11,4.71.76,2.27.99,4.43,2.21,6.43,3.63,1.73,1.23,3.41,2.72,3.99,4.67.83,2.77-.85,5.77-3.28,7.54-2.44,1.77-5.5,2.57-13.17-3.1Z"/>
  <path class="st7" d="M285.49,69.28c-2.91-2.43-2.58-7.05-.16-9.9,2.43-2.85,6.34-4.23,10.17-4.94,1.89-.35,3.93-.56,5.68.18,2.96,1.25,4.04,4.69,4.05,7.72.02,4.15-1.35,8.36-4.23,11.53-2.88,3.16-7.31,5.16-11.75,4.87-2.04-.13-4.46-1.23-4.41-3.13.03-1.26,1.16-2.24,2.3-2.92,2.25-1.35,4.86-2.17,7.53-2.34-.04.39-.08.78-9.18-1.06Z"/>
  <path class="st8" d="M154.23,41.26l5.54-22.73c1.66-6.79,8.9-11.04,16.17-9.49l116.05,24.62c7.28,1.54,11.83,8.3,10.18,15.08l-5.54,22.73c-1.66,6.79-8.9,11.04-16.17,9.49l-116.05-24.62c-7.28-1.54-11.83-8.3-10.18-15.08Z"/>
  <path class="st4" d="M162.8,8.7c8.36,1.4,16.72,2.8,25.08,4.19,5.6.94,11.56,2.03,15.67,5.71,2.34,2.1,3.9,4.96,4.33,7.96.53,3.66-.56,7.33-1.63,10.89-1.53,5.05-3.05,10.1-4.58,15.14-.6,1.98-1.19,4.09-.52,6.04.3.87.85,1.78.53,2.65-.36.94-1.57,1.31-2.63,1.45-5.62.75-11.22-1.1-16.64-2.68-9.11-2.64-18.46-4.55-27.92-5.69-3.85-.47-8.1-.99-10.65-3.73-2-2.15-2.44-5.18-2.52-8.03-.2-7.13,1.35-14.29,4.48-20.8,1.81-3.75,4.22-7.37,7.74-9.84,3.52-2.47,8.26-3.44,9.26-3.27Z"/>
  <ellipse class="st5" cx="203.26" cy="39.35" rx="23.97" ry="22.51"/>
  <ellipse class="st2" cx="203.15" cy="40.62" rx="19.12" ry="19.58"/>
  <ellipse class="st3" cx="202.58" cy="39.33" rx="11.74" ry="18.88" transform="translate(119.25 228.11) rotate(-77.17)"/>
  <ellipse class="st4" cx="197.37" cy="37.27" rx="10.32" ry="7.15" transform="translate(87.13 205.17) rotate(-67.41)"/>
  <ellipse class="st5" cx="155.62" cy="31.16" rx="23.97" ry="22.51"/>
  <ellipse class="st2" cx="155.51" cy="32.44" rx="19.12" ry="19.58"/>
  <ellipse class="st3" cx="154.94" cy="31.14" rx="11.74" ry="18.88" transform="translate(90.17 175.3) rotate(-77.17)"/>
  <ellipse class="st4" cx="149.74" cy="29.09" rx="10.32" ry="7.15" transform="translate(65.35 156.15) rotate(-67.41)"/>
  <path class="st7" d="M321.56,81.76c.96,2.29.02,4.99-1.72,6.84s-4.15,3.03-6.54,4.07c-8.99,3.92-18.61,6.6-28.43,7.93-6.26.85-13.09,1.03-18.43-2.13-4.02-2.38-6.65-6.42-8.06-10.66-1.4-4.24-1.69-8.73-1.89-13.16-.41-9.23-.48-18.47-.21-27.71.14-4.72.33-9.67-1.9-13.92-2.78-5.3-8.7-8.42-14.32-11.13-3.26-1.57-7.02-3.86-6.84-7.27.14-2.66,2.91-4.69,5.74-5.07s5.66.51,8.31,1.51c10.05,3.83,19.35,9.75,25.81,17.88,6.46,8.13,9.86,18.6,8.04,28.58"/>
  <path class="st7" d="M277.19,24.89c.47-1.67,1.07-3.34,2.19-4.72s2.83-2.43,4.68-2.43c2.02,0,3.85,1.24,4.97,2.81,1.12,1.57,1.64,3.43,2.1,5.26,3.14,12.4,4.5,25.12,5.85,37.79.17,1.58.32,3.26-.41,4.69-1.14,2.22-4.08,3.16-6.72,3.04-6.07-.28-11.02-4.84-13.82-9.87-2.79-5.03-4.04-10.69-6.46-15.89-1.32-2.84-3-5.55-3.96-8.52-.96-2.97-1.12-6.33.53-9.02,1.65-2.69,5.48-4.33,11.04-3.14Z"/>
  <path class="st7" d="M290.46,38.56c-1.08-8.92-2.17-17.85-3.25-26.77-.25-2.04-.49-4.13-.05-6.14.44-2.01,1.69-3.98,3.7-4.84,3.13-1.33,6.86.5,9,3.01,3.04,3.54,4.05,8.19,4.96,12.64,4.44,21.59,8.87,43.17,13.31,64.76.17.8.33,1.62.26,2.44-.22,2.56-2.79,4.51-5.49,5.06-2.69.55-5.49.02-8.19-.51"/>
  <path class="st7" d="M265.7,27.06c-1.02-2.38-.24-5.32,1.85-6.98,2.09-1.66,5.33-1.91,7.69-.59,2.4,1.34,3.66,3.99,4.01,6.59.36,2.59-.03,5.22-.13,7.83-.17,4.64.58,9.3,2.2,13.69"/>
  <path class="st7" d="M276.83,25.59c-1.02-2.38-.24-5.32,1.85-6.98,2.09-1.66,5.33-1.91,7.69-.59,2.4,1.34,3.66,3.99,4.01,6.59.36,2.59-.03,5.22-.13,7.83-.17,4.64.58,9.3,2.2,13.69"/>
  <path class="st7" d="M288.23,67.8c-1.89-1.89-2.71-4.73-1.86-7.19s3.48-4.35,6.25-4.28c2.72.07,5.1,1.88,6.48,4.07,2.57,4.11,1.98,9.74-10.87,7.4Z"/>
  <path class="st0" d="M271.14,56.07c1.31-7.42,2.63-14.91,2.3-22.41-.1-2.2-.36-4.48-1.53-6.35-2.02-3.23-6.26-4.56-8.53-7.63,2.02,1.29,3.96,2.71,5.78,4.25,1.65,1.39,3.26,2.95,4.04,4.95.77,1.96.65,4.14.53,6.25-.41,6.91-.82,13.86-2.59,20.95Z"/>
  <path class="st0" d="M292.65,50.86c-5.63-9.36-10.67-19.01-15.09-28.9,5.06,9.7,10.11,19.4,15.09,28.9Z"/>
  <path class="st0" d="M301.35,49.19c-3.06-10.16-6.21-20.49-12.54-29.37,6.41,9.04,10.89,19.16,12.54,29.37Z"/>
  <path class="st0" d="M301.49,11.6c-1.4.7-2.97,1.12-4.55,1.24-.98.07-2.06,0-2.77-.64-.58-.51-.79-1.28-.95-2-.63-2.81-.9-5.68-.82-8.55-.59,2.79-.56,5.68.07,8.46.19.85.46,1.72,1.07,2.39.97,1.06,2.63,1.36,4.1,1.12,1.47-.25,2.79-.95,3.86-2.01Z"/>
  <path class="st0" d="M250.59,13.12c-.72.9-1.54,1.85-2.71,2.13-.79.18-1.62.02-2.4-.21-3.01-.88-5.59-2.71-8.09-4.51,1.82,1.63,3.88,3.02,6.12,4.11.78.38,1.59.73,2.45.89.86.16,1.79.14,2.59-.21,1-.44,1.69-1.32,2.04-2.2Z"/>
  <path class="st0" d="M207.67,16.02c1.75-.42,2.98-1.33,3.52-2.33.54-.99.44-2.06.07-3.08.73.94.84,2.01.32,2.99-.53.98-1.69,1.85-3.91,2.42Z"/>
  <path class="st0" d="M196.5,13.39c1.32-.61,2.22-1.63,2.76-2.72.53-1.09.73-2.25.92-3.41.43,2.32-.81,4.77-3.19,6.28,0-.04.01-.08-.49-.15Z"/>
  <path class="st0" d="M191.42,19.35c-.3-.21-.59-.42-.89-.63"/>
  <path class="st0" d="M185.12,10.24c.6-.59.92-1.52,1.03-2.45.11-.93.03-1.88-.05-2.81.3,1.78.03,3.7-.98,5.26Z"/>
  <path class="st8" d="M258.73,104.84l-1.23-4.53c-1.44-5.32,2.01-10.73,7.72-12.07l49.22-11.61c5.71-1.35,11.5,1.88,12.94,7.2l1.23,4.53c1.44,5.32-2.01,10.73-7.72,12.07l-49.22,11.61c-5.71,1.35-11.5-1.88-12.94-7.2Z"/>
  <path class="st6" d="M128.92,72.6l1.57-4.44c1.84-5.21,7.86-8.05,13.45-6.33l48.22,14.81c5.59,1.72,8.63,7.33,6.79,12.55l-1.57,4.44c-1.84,5.21-7.86,8.05-13.45,6.33l-48.22-14.81c-5.59-1.72-8.63-7.33-6.79-12.55Z"/>
  <path class="st8" d="M136.9,78.72c-39.29,43.79-66.28,96.62-81.63,151.9-15.36,55.28-19.32,112.99-15.44,169.98.43,6.28,1.2,13.1,5.9,17.61,5.66,5.44,14.81,5.55,22.93,5.3,15.92-.5,31.85-1,47.77-1.51,5.15-.16,10.68-.45,14.74-3.41,4.19-3.06,5.79-8.21,7.11-13.02,28.46-103.54,43.05-210.38,43.33-317.27l8.84-2.33"/>
  <path class="st8" d="M186.89,87.1c-2.28,33.02,3.92,66.01,4.87,99.08,2.34,81.78-27.36,161.24-60.45,237.01-2.64,6.06-5.49,12.34-10.83,16.58-5.34,4.24-13.95,5.66-19.24,1.38-4.92-3.99-5.31-11.19-9.76-15.63-4.98-4.99-14.03-5.49-18.09-11.16-3.73-5.21-1.49-12.17.79-18.07,33.89-87.56,51.28-179.78,68.51-271.47"/>
  <path class="st6" d="M320.94,95.09c39.29,43.79,66.28,96.62,81.63,151.9,15.36,55.28,19.32,112.99,15.44,169.98-.43,6.28-1.2,13.1-5.9,17.61-5.66,5.44-14.81,5.55-22.93,5.3-15.92-.5-31.85-1-47.77-1.51-5.15-.16-10.68-.45-14.74-3.41-4.19-3.06-5.79-8.21-7.11-13.02-28.46-103.54-43.05-210.38-43.33-317.27l-8.84-2.33"/>
  <path class="st6" d="M270.96,103.47c2.28,33.02-3.92,66.01-4.87,99.08-2.34,81.78,27.36,161.24,60.45,237.01,2.64,6.06,5.49,12.34,10.83,16.58,5.34,4.24,13.95,5.66,19.24,1.38,4.92-3.99,5.31-11.19,9.76-15.63,4.98-4.99,14.03-5.49,18.09-11.16,3.73-5.21,1.49-12.17-.79-18.07-33.89-87.56-51.28-179.78-68.51-271.47"/>
  <path class="st1" d="M139.24,89.38c-33.27,45.94-55.44,98.45-68.25,152.59-12.81,54.14-16.4,109.93-14.27,165.34-26.64-110.46,3.16-231.58,82.52-317.93Z"/>
  <path class="st1" d="M324.61,109.12c25.3,40.9,48.26,83.32,63.89,128.23,15.63,44.92,23.78,92.54,19.07,139.55,9.2-47.9,6.46-97.76-7.94-144.54-14.4-46.77-40.44-90.4-75.01-123.25Z"/>
</svg>