<?xml version="1.0" encoding="UTF-8"?>
<svg id="Layer_1" xmlns="http://www.w3.org/2000/svg" version="1.1" viewBox="0 0 564.27 182.87">
  <!-- Generator: Adobe Illustrator 30.5.1, SVG Export Plug-In . SVG Version: 2.1.4 Build 3)  -->
  <defs>
    <style>
      .st0 {
        font-size: 32.58px;
      }

      .st0, .st1 {
        fill: #2d3235;
        font-family: CooperBlack, 'Cooper Black';
      }

      .st2 {
        fill: #f6dfa5;
      }

      .st1 {
        font-size: 69.12px;
      }
    </style>
  </defs>
  <path class="st2" d="M5.9,26.8c-9.52,40.89,9.79,86.84,45.65,108.67,7.08,4.31,15.29,8.38,18.32,16.1,1.83,4.66,1.4,9.91,2.84,14.7,4.58,15.18,24.97,18.81,40.33,14.88,15.37-3.93,30.03-12.56,45.85-11.51,10.46.7,20.1,5.6,30.12,8.68,41.23,12.68,85.13-5.85,128.26-6.28,39.08-.39,77.65,14.19,116.51,10.09,22.52-2.37,43.86-10.91,64.86-19.36,11.16-4.49,22.76-9.29,30.63-18.38,8.19-9.47,11.16-22.23,13.87-34.45,7.6-34.26,15.19-68.52,21.12-103.94,0,.2,0,.41-8.69-.54C389.7,28.35,220.55,27.35,54.96,2.51,42.34.61,29.39-1.41,16.94,1.35S-7.54,12.83,5.9,26.8Z"/>
  <text class="st1" transform="translate(98.71 113.09) scale(1.02 1)"><tspan x="0" y="0">TraceFlow</tspan></text>
  <text class="st0" transform="translate(87.67 138.25) scale(.87 1)"><tspan x="0" y="0">Your AI research companion</tspan></text>
  <path class="st2" d="M408.46,146.39l1.63,1.74c-.99-1.3-1.98-2.61-2.97-3.91.3-.05-.64.06,1.34,2.18Z"/>
  <path class="st2" d="M386.36,69.92"/>
</svg>